<svg width="227" height="105" viewBox="0 0 227 105" fill="none" xmlns="http://www.w3.org/2000/svg">
<g clip-path="url(#clip0_2_150)">
<g clip-path="url(#clip1_2_150)">
<g clip-path="url(#clip2_2_150)">
<g clip-path="url(#clip3_2_150)">
<g clip-path="url(#clip4_2_150)">
<g clip-path="url(#clip5_2_150)">
<path d="M225.174 59.4736H88.6946C87.9255 59.4736 87.3019 59.968 87.3019 60.5778C87.3019 61.1876 87.9255 61.682 88.6946 61.682H225.174C225.944 61.682 226.567 61.1876 226.567 60.5778C226.567 59.968 225.944 59.4736 225.174 59.4736Z" fill="#D7903E"/>
<g clip-path="url(#clip6_2_150)">
<g clip-path="url(#clip7_2_150)">
<path d="M97.3886 56.8722C96.0294 56.8722 94.7645 56.7629 93.5938 56.5444C92.4188 56.3259 91.3818 55.9216 90.483 55.3315C89.5842 54.7414 88.8892 53.9153 88.3982 52.8532C87.9027 51.7955 87.655 50.4361 87.655 48.7752V32.3845H93.3439V48.7424C93.3439 49.4636 93.5039 50.0493 93.824 50.4995C94.1397 50.9453 94.6001 51.271 95.2051 51.4764C95.8058 51.6862 96.5336 51.7911 97.3886 51.7911C98.2217 51.7911 98.9407 51.6862 99.5458 51.4764C100.146 51.271 100.607 50.9453 100.927 50.4995C101.243 50.0493 101.4 49.4636 101.4 48.7424V32.3845H107.089V48.7752C107.089 50.4361 106.844 51.7955 106.353 52.8532C105.857 53.9153 105.16 54.7414 104.261 55.3315C103.362 55.9216 102.332 56.3259 101.17 56.5444C100.008 56.7629 98.7478 56.8722 97.3886 56.8722ZM125.636 56.7083H116.724C115.343 56.7083 114.203 56.5007 113.304 56.0855C112.406 55.6702 111.737 55.0146 111.298 54.1186C110.86 53.2226 110.641 52.0643 110.641 50.6438V32.3845H116.33V49.6931C116.33 50.152 116.4 50.5236 116.54 50.8077C116.685 51.0918 116.904 51.2994 117.198 51.4305C117.496 51.5616 117.842 51.6272 118.237 51.6272H125.636V56.7083ZM137.77 56.7083H132.114V37.4656H125.702V32.3845H144.182V37.4656H137.77V56.7083ZM152.331 56.7083H146.642V32.3845H152.331V56.7083ZM161.045 56.7083H155.553L158.414 32.3845H163.807L169.102 50.1848L174.363 32.3845H179.69L182.584 56.7083H177.125L175.119 40.0226L175.974 40.0554L171.699 56.7083H166.372L162.064 40.0554L162.985 40.0226L161.045 56.7083ZM190.049 56.7083H184.195L191.627 32.3845H198.73L206.162 56.7083H200.275L199.026 52.2828H191.265L190.049 56.7083ZM195.146 37.2362L192.581 47.2017H197.711L195.146 37.2362ZM214.146 56.7083H208.457V32.3845H218.98C219.795 32.3845 220.631 32.4763 221.486 32.6599C222.336 32.8478 223.119 33.2259 223.833 33.7941C224.544 34.3623 225.118 35.219 225.557 36.3642C225.995 37.5137 226.214 39.0391 226.214 40.9405C226.214 42.8418 225.995 44.376 225.557 45.543C225.118 46.7144 224.555 47.5951 223.866 48.1852C223.178 48.7752 222.426 49.173 221.61 49.3784C220.799 49.5882 220.01 49.6931 219.243 49.6931C218.848 49.6931 218.41 49.6712 217.927 49.6275C217.45 49.5838 216.969 49.5292 216.487 49.4636C216.005 49.3981 215.56 49.3259 215.152 49.2473C214.744 49.173 214.409 49.1249 214.146 49.103V56.7083ZM214.146 37.4656V44.612H218.362C218.866 44.612 219.276 44.4809 219.591 44.2186C219.907 43.9564 220.142 43.563 220.295 43.0385C220.453 42.514 220.532 41.8256 220.532 40.9732C220.532 40.1646 220.449 39.5025 220.282 38.9867C220.12 38.4753 219.883 38.0929 219.572 37.8393C219.269 37.5902 218.877 37.4656 218.394 37.4656H214.146Z" fill="#D7903E"/>
</g>
</g>
<g clip-path="url(#clip8_2_150)">
<g clip-path="url(#clip9_2_150)">
<path d="M89.0652 66.5059C89.254 66.3177 89.4752 66.1719 89.7288 66.0684C89.9824 65.9661 90.2478 65.915 90.525 65.915C91.0676 65.915 91.4745 66.0649 91.7458 66.3647C92.0172 66.6646 92.1528 67.0967 92.1528 67.6612V70.6774H90.3923V67.8728C90.3923 67.6729 90.341 67.5124 90.2383 67.3913C90.1345 67.2714 89.9883 67.2114 89.7995 67.2114C89.5813 67.2114 89.4044 67.282 89.2687 67.4231C89.1331 67.5642 89.0652 67.7376 89.0652 67.9434V70.6774H87.3047V64.2834H89.0652V66.5059ZM95.6208 65.915C96.4406 65.915 97.0846 66.1219 97.5529 66.5358C98.0224 66.9509 98.2571 67.5554 98.2571 68.3491C98.2571 69.1428 98.0224 69.7467 97.5529 70.1606C97.0846 70.5757 96.4406 70.7832 95.6208 70.7832C94.801 70.7832 94.1581 70.5774 93.6922 70.1659C93.2262 69.7543 92.9933 69.1487 92.9933 68.3491C92.9933 67.5495 93.2262 66.9439 93.6922 66.5323C94.1581 66.1207 94.801 65.915 95.6208 65.915ZM95.6208 67.1056C95.0428 67.1056 94.7538 67.4378 94.7538 68.1022V68.6049C94.7538 69.2634 95.0428 69.5926 95.6208 69.5926C96.2047 69.5926 96.4966 69.2634 96.4966 68.6049V68.1022C96.4966 67.4378 96.2047 67.1056 95.6208 67.1056ZM105.308 65.915C105.839 65.915 106.237 66.0661 106.502 66.3683C106.768 66.6717 106.901 67.1026 106.901 67.6612V70.6774H105.14V67.8728C105.14 67.6729 105.091 67.5124 104.993 67.3913C104.896 67.2714 104.76 67.2114 104.583 67.2114C104.376 67.2114 104.208 67.282 104.078 67.4231C103.949 67.5642 103.884 67.7376 103.884 67.9434V70.6774H102.123V67.8728C102.123 67.6729 102.074 67.5124 101.976 67.3913C101.88 67.2714 101.743 67.2114 101.566 67.2114C101.359 67.2114 101.191 67.282 101.062 67.4231C100.932 67.5642 100.867 67.7376 100.867 67.9434V70.6774H99.1064V66.0208H100.548L100.663 66.7175C100.84 66.4706 101.075 66.2748 101.366 66.1302C101.658 65.9867 101.967 65.915 102.291 65.915C102.993 65.915 103.465 66.1825 103.707 66.7175C103.89 66.4706 104.124 66.2748 104.409 66.1302C104.695 65.9867 104.994 65.915 105.308 65.915ZM110.367 65.915C111.222 65.915 111.875 66.1149 112.327 66.5147C112.778 66.9145 113.003 67.526 113.003 68.3491V68.6489H109.5C109.5 68.9841 109.575 69.2369 109.726 69.4074C109.876 69.5779 110.113 69.6632 110.438 69.6632C110.732 69.6632 110.949 69.6014 111.089 69.478C111.227 69.3545 111.296 69.1899 111.296 68.9841H113.003C113.003 69.5485 112.788 69.9895 112.357 70.307C111.927 70.6245 111.299 70.7832 110.473 70.7832C109.606 70.7832 108.934 70.5816 108.456 70.1782C107.978 69.7761 107.739 69.1663 107.739 68.3491C107.739 67.5495 107.972 66.9439 108.438 66.5323C108.904 66.1207 109.547 65.915 110.367 65.915ZM110.438 67.035C109.883 67.035 109.573 67.2967 109.509 67.8199H111.225C111.225 67.5789 111.156 67.3878 111.018 67.2467C110.879 67.1056 110.685 67.035 110.438 67.035ZM119.107 65.915C119.821 65.915 120.402 66.0337 120.85 66.2713C121.299 66.51 121.523 66.8968 121.523 67.4319V69.2487C121.523 69.3486 121.546 69.4309 121.593 69.4956C121.641 69.5603 121.711 69.5926 121.806 69.5926H122.124V70.6068C122.107 70.6186 122.061 70.6374 121.986 70.6633C121.913 70.6903 121.809 70.7174 121.673 70.7444C121.537 70.7703 121.381 70.7832 121.204 70.7832C120.862 70.7832 120.58 70.7315 120.358 70.628C120.138 70.5257 119.986 70.3834 119.904 70.2011C119.68 70.3775 119.429 70.5186 119.152 70.6245C118.874 70.7303 118.55 70.7832 118.179 70.7832C117.082 70.7832 116.533 70.3481 116.533 69.478C116.533 69.0252 116.655 68.6795 116.899 68.4408C117.145 68.2033 117.497 68.0404 117.957 67.9522C118.417 67.864 119.019 67.8199 119.762 67.8199V67.5906C119.762 67.4084 119.698 67.2702 119.571 67.1761C119.445 67.082 119.281 67.035 119.081 67.035C118.898 67.035 118.74 67.0674 118.607 67.132C118.475 67.1967 118.409 67.2996 118.409 67.4407V67.476H116.675C116.669 67.4466 116.666 67.4054 116.666 67.3525C116.666 66.9115 116.876 66.5617 117.297 66.303C117.72 66.0443 118.323 65.915 119.107 65.915ZM119.762 68.6489C119.261 68.6489 118.89 68.703 118.651 68.8112C118.413 68.9206 118.294 69.0664 118.294 69.2487C118.294 69.5426 118.494 69.6896 118.895 69.6896C119.125 69.6896 119.327 69.6279 119.5 69.5044C119.675 69.381 119.762 69.2281 119.762 69.0458V68.6489ZM125.866 65.915C126.498 65.915 126.984 66.1207 127.326 66.5323C127.668 66.9439 127.839 67.5524 127.839 68.3579C127.839 69.1575 127.668 69.7614 127.326 70.1694C126.984 70.5786 126.498 70.7832 125.866 70.7832C125.324 70.7832 124.887 70.6068 124.557 70.2541V72.4148H122.797V66.0208H124.23L124.38 66.6822C124.722 66.1707 125.218 65.915 125.866 65.915ZM125.318 67.2114C125.058 67.2114 124.864 67.3025 124.734 67.4848C124.604 67.6671 124.539 67.9052 124.539 68.1992V68.4902C124.539 68.7842 124.604 69.0235 124.734 69.2081C124.864 69.3939 125.058 69.4868 125.318 69.4868C125.825 69.4868 126.079 69.184 126.079 68.5784V68.111C126.079 67.5113 125.825 67.2114 125.318 67.2114ZM131.766 65.915C132.397 65.915 132.883 66.1207 133.225 66.5323C133.567 66.9439 133.738 67.5524 133.738 68.3579C133.738 69.1575 133.567 69.7614 133.225 70.1694C132.883 70.5786 132.397 70.7832 131.766 70.7832C131.223 70.7832 130.786 70.6068 130.456 70.2541V72.4148H128.696V66.0208H130.129L130.279 66.6822C130.621 66.1707 131.117 65.915 131.766 65.915ZM131.217 67.2114C130.958 67.2114 130.763 67.3025 130.633 67.4848C130.503 67.6671 130.439 67.9052 130.439 68.1992V68.4902C130.439 68.7842 130.503 69.0235 130.633 69.2081C130.763 69.3939 130.958 69.4868 131.217 69.4868C131.724 69.4868 131.978 69.184 131.978 68.5784V68.111C131.978 67.5113 131.724 67.2114 131.217 67.2114ZM136.41 70.6774H134.65V64.2834H136.41V70.6774ZM139.356 65.474H137.596V64.2834H139.356V65.474ZM139.356 70.6774H137.596V66.0208H139.356V70.6774ZM142.787 65.915C143.502 65.915 144.083 66.0337 144.53 66.2713C144.978 66.51 145.202 66.8968 145.202 67.4319V69.2487C145.202 69.3486 145.226 69.4309 145.275 69.4956C145.321 69.5603 145.391 69.5926 145.485 69.5926H145.806V70.6068C145.787 70.6186 145.741 70.6374 145.668 70.6633C145.593 70.6903 145.488 70.7174 145.353 70.7444C145.217 70.7703 145.061 70.7832 144.884 70.7832C144.542 70.7832 144.26 70.7315 144.04 70.628C143.818 70.5257 143.666 70.3834 143.583 70.2011C143.359 70.3775 143.108 70.5186 142.831 70.6245C142.554 70.7303 142.23 70.7832 141.858 70.7832C140.761 70.7832 140.213 70.3481 140.213 69.478C140.213 69.0252 140.335 68.6795 140.581 68.4408C140.825 68.2033 141.177 68.0404 141.637 67.9522C142.097 67.864 142.699 67.8199 143.442 67.8199V67.5906C143.442 67.4084 143.379 67.2702 143.252 67.1761C143.126 67.082 142.962 67.035 142.76 67.035C142.579 67.035 142.421 67.0674 142.288 67.132C142.156 67.1967 142.09 67.2996 142.09 67.4407V67.476H140.354C140.348 67.4466 140.345 67.4054 140.345 67.3525C140.345 66.9115 140.556 66.5617 140.979 66.303C141.4 66.0443 142.003 65.915 142.787 65.915ZM143.442 68.6489C142.94 68.6489 142.571 68.703 142.332 68.8112C142.093 68.9206 141.973 69.0664 141.973 69.2487C141.973 69.5426 142.174 69.6896 142.576 69.6896C142.805 69.6896 143.007 69.6279 143.182 69.5044C143.355 69.381 143.442 69.2281 143.442 69.0458V68.6489ZM149.599 65.915C150.142 65.915 150.549 66.0649 150.82 66.3647C151.091 66.6646 151.227 67.0967 151.227 67.6612V70.6774H149.466V67.8728C149.466 67.6729 149.415 67.5124 149.312 67.3913C149.209 67.2714 149.062 67.2114 148.874 67.2114C148.655 67.2114 148.478 67.282 148.343 67.4231C148.207 67.5642 148.139 67.7376 148.139 67.9434V70.6774H146.379V66.0208H147.821L147.936 66.7263C148.119 66.4794 148.359 66.2824 148.658 66.1354C148.955 65.9885 149.269 65.915 149.599 65.915ZM154.695 65.915C155.462 65.915 156.083 66.0778 156.558 66.4036C157.032 66.7305 157.269 67.229 157.269 67.8993H155.562C155.562 67.3701 155.273 67.1056 154.695 67.1056C154.117 67.1056 153.828 67.4378 153.828 68.1022V68.6049C153.828 69.2634 154.129 69.5926 154.73 69.5926C155.332 69.5926 155.633 69.3222 155.633 68.7812H157.269C157.269 69.4574 157.032 69.9601 156.558 70.2893C156.083 70.6186 155.462 70.7832 154.695 70.7832C153.875 70.7832 153.232 70.5774 152.766 70.1659C152.3 69.7543 152.067 69.1487 152.067 68.3491C152.067 67.5495 152.3 66.9439 152.766 66.5323C153.232 66.1207 153.875 65.915 154.695 65.915ZM160.596 65.915C161.451 65.915 162.104 66.1149 162.554 66.5147C163.006 66.9145 163.232 67.526 163.232 68.3491V68.6489H159.729C159.729 68.9841 159.804 69.2369 159.953 69.4074C160.104 69.5779 160.342 69.6632 160.667 69.6632C160.961 69.6632 161.178 69.6014 161.316 69.478C161.455 69.3545 161.525 69.1899 161.525 68.9841H163.232C163.232 69.5485 163.017 69.9895 162.586 70.307C162.156 70.6245 161.528 70.7832 160.702 70.7832C159.835 70.7832 159.163 70.5816 158.685 70.1782C158.207 69.7761 157.968 69.1663 157.968 68.3491C157.968 67.5495 158.201 66.9439 158.667 66.5323C159.133 66.1207 159.776 65.915 160.596 65.915ZM160.667 67.035C160.112 67.035 159.802 67.2967 159.738 67.8199H161.454C161.454 67.5789 161.384 67.3878 161.245 67.2467C161.107 67.1056 160.914 67.035 160.667 67.035ZM166.302 65.915C166.927 65.915 167.456 66.0367 167.889 66.2801C168.323 66.5247 168.54 66.9027 168.54 67.4142H166.904C166.904 67.2437 166.827 67.1232 166.674 67.0527C166.567 66.9939 166.435 66.9645 166.275 66.9645C165.851 66.9645 165.638 67.0644 165.638 67.2643C165.638 67.376 165.712 67.4554 165.86 67.5024C166.007 67.5495 166.249 67.5995 166.585 67.6524C166.998 67.7112 167.343 67.78 167.62 67.8587C167.897 67.9387 168.139 68.0798 168.346 68.2821C168.552 68.4855 168.655 68.7695 168.655 69.134C168.655 69.7278 168.432 70.1512 167.986 70.404C167.542 70.6568 166.96 70.7832 166.24 70.7832C165.827 70.7832 165.438 70.7256 165.072 70.6104C164.707 70.4963 164.409 70.3187 164.179 70.0777C163.949 69.8366 163.834 69.5309 163.834 69.1605H165.47V69.1957C165.476 69.3957 165.56 69.535 165.722 69.6138C165.884 69.6937 166.057 69.7337 166.24 69.7337C166.73 69.7337 166.974 69.6191 166.974 69.3898C166.974 69.2722 166.898 69.1869 166.744 69.134C166.591 69.0811 166.34 69.0252 165.992 68.9664C165.574 68.8959 165.23 68.8195 164.961 68.7371C164.693 68.6548 164.459 68.5149 164.258 68.3173C164.058 68.121 163.958 67.8464 163.958 67.4936C163.958 66.9233 164.174 66.5176 164.607 66.2766C165.041 66.0355 165.606 65.915 166.302 65.915Z" fill="#D7903E"/>
</g>
</g>
</g>
</g>
<g clip-path="url(#clip10_2_150)">
<g clip-path="url(#clip11_2_150)">
<path fill-rule="evenodd" clip-rule="evenodd" d="M0.157745 10.275L18.4482 104.799L12.1372 41.5327L43.3281 39.5056L43.2701 28.9167L55.5794 0L43.8354 19.261L0.157745 10.275Z" fill="#D7903E"/>
<path fill-rule="evenodd" clip-rule="evenodd" d="M50.0336 57.3727L55.5794 0.00750732L46.1859 42.5602L25.1075 43.6799L26.7949 65.6034L18.4482 104.799L31.4067 62.0505L50.0336 57.3727Z" fill="#D7903E"/>
<path fill-rule="evenodd" clip-rule="evenodd" d="M53.6997 70.9091L54.2897 59.7095L37.1159 63.7327L37.0815 76.3723L18.4482 104.799L41.7493 75.2109L53.6997 70.9091Z" fill="#D7903E"/>
<path fill-rule="evenodd" clip-rule="evenodd" d="M56.8283 65.7791L72.779 60.7102L74.4008 47.2831L57.313 49.5277L56.8283 65.7791Z" fill="#D7903E"/>
<path fill-rule="evenodd" clip-rule="evenodd" d="M63.6628 46.6091L75.4724 45.0909L77.1716 34.0788L68.4885 33.6792L55.5794 0L64.6398 33.1788L63.6628 46.6091Z" fill="#D7903E"/>
<path fill-rule="evenodd" clip-rule="evenodd" d="M80.153 32.4578L81.5029 22.2728L71.2453 19.3864L55.5794 0L71.1454 24.0396L70.6918 31.5395L80.153 32.4578Z" fill="#D7903E"/>
</g>
</g>
</g>
</g>
</g>
</g>
<defs>
<clipPath id="clip0_2_150">
<rect width="227" height="105" fill="white"/>
</clipPath>
<clipPath id="clip1_2_150">
<rect width="227" height="105" fill="white" transform="translate(-0.137573 -0.100342)"/>
</clipPath>
<clipPath id="clip2_2_150">
<rect width="226.409" height="104.799" fill="white" transform="translate(0.157715)"/>
</clipPath>
<clipPath id="clip3_2_150">
<rect width="226.409" height="104.799" fill="white" transform="translate(0.157715)"/>
</clipPath>
<clipPath id="clip4_2_150">
<rect width="139.265" height="40.0303" fill="white" transform="translate(87.3019 32.3845)"/>
</clipPath>
<clipPath id="clip5_2_150">
<rect width="139.265" height="40.0303" fill="white" transform="translate(87.3019 32.3845)"/>
</clipPath>
<clipPath id="clip6_2_150">
<rect width="138.572" height="24.4877" fill="white" transform="translate(87.6484 32.3845)"/>
</clipPath>
<clipPath id="clip7_2_150">
<rect width="138.572" height="24.4877" fill="white" transform="translate(87.6484 32.3845)"/>
</clipPath>
<clipPath id="clip8_2_150">
<rect width="81.3558" height="8.13141" fill="white" transform="translate(87.3019 64.2834)"/>
</clipPath>
<clipPath id="clip9_2_150">
<rect width="81.3558" height="8.13141" fill="white" transform="translate(87.3019 64.2834)"/>
</clipPath>
<clipPath id="clip10_2_150">
<rect width="81.3452" height="104.799" fill="white" transform="translate(0.157715)"/>
</clipPath>
<clipPath id="clip11_2_150">
<rect width="81.3452" height="104.799" fill="white" transform="translate(0.157715)"/>
</clipPath>
</defs>
</svg>
